# xmcd
#
# Track frame offsets: 
#        150
#        3480
#        6537
#        9437
#        10652
#        11957
#        13242
#        14710
#        16125
#        18872
#        20932
#        23417
#        24715
#        26297
#        27925
#        30132
#        32545
#        41127
#        43502
#        46332
#        49027
#        52232
#        54960
#        57620
#        61567
#        64057
#        68237
#        70680
#        71977
#        77285
#        79797
#        81780
#        84422
#        93497
#        100690
#        106655
#        111892
#
# Disc length: 1582 seconds
#
# Revision: 1
# Processed by: cddbd v1.5.2PL0 Copyright (c) Steve Scherf et al.
# Submitted via: ExactAudioCopy v1.0b6
#
DISCID=c4062c25
DTITLE=Fred Sokolow - Country Fretboard Roadmap (2001)
DYEAR=2001
DGENRE=Teaching Books: Guitar
TTITLE0=Tuning the guitar
TTITLE1=Bend
TTITLE2=C major scale
TTITLE3=Key of C
TTITLE4=Key of G
TTITLE5=Key of D
TTITLE6=Key of A
TTITLE7=Key of E
TTITLE8=Key of G progression GCDG
TTITLE9=Boogie Licks GACG
TTITLE10=Key of F - F-Bb-C7-F
TTITLE11=Wabash Cannonball - G C D G
TTITLE12=Wabash Cannonball arpeggios - G C D G
TTITLE13=Wabash Cannonball altered chords - G C D G
TTITLE14=I-IV-V prog - arpeggios Solo
TTITLE15=I-IV-V prog - lead Solo
TTITLE16=Blues box licks - key of G
TTITLE17=Honky Tonk 1 - A - D - A - E7 - A - D - AE - A
TTITLE18=The Water Is Wide - in G
TTITLE19=Chilly Winds
TTITLE20=Major pentatonic - Bb sliding scale
TTITLE21=Major pentatonic - Honky tonk 2 - solo
TTITLE22=Major pentatonic - Honky tonk 3 - solo
TTITLE23=Major pentatonic - G sliding scale
TTITLE24=See See Rider
TTITLE25=Major pentatonics - G C licks
TTITLE26=See See Rider with steel licks
TTITLE27=Blue Yodel - double note lick
TTITLE28=Careless Love - double note lick
TTITLE29=Stagolee - double note lick
TTITLE30=Major scales - Redwing
TTITLE31=Careless Love - major scales
TTITLE32=Honky Tonk - Guitar in E
TTITLE33=Careless Love - in G
TTITLE34=Honky Tonk 2 - in A
TTITLE35=Stagolee - in G
TTITLE36=Redwing - in G
EXTD=YEAR: 2001
EXTT0=
EXTT1=
EXTT2=
EXTT3=
EXTT4=
EXTT5=
EXTT6=
EXTT7=
EXTT8=
EXTT9=
EXTT10=
EXTT11=
EXTT12=
EXTT13=
EXTT14=
EXTT15=
EXTT16=
EXTT17=
EXTT18=
EXTT19=
EXTT20=
EXTT21=
EXTT22=
EXTT23=
EXTT24=
EXTT25=
EXTT26=
EXTT27=
EXTT28=
EXTT29=
EXTT30=
EXTT31=
EXTT32=
EXTT33=
EXTT34=
EXTT35=
EXTT36=
PLAYORDER=
